<?xml version="1.0" encoding="UTF-8"?>
<svg id="Layer_2" data-name="Layer 2" xmlns="http://www.w3.org/2000/svg" viewBox="0 0 820.5 726.82">
  <defs>
    <style>
      .cls-1 {
        fill: #fff;
      }

      .cls-2 {
        fill: #c97043;
      }

      .cls-3 {
        opacity: .2;
      }

      .cls-4 {
        opacity: .3;
      }

      .cls-5 {
        fill: #1e1e1e;
      }
    </style>
  </defs>
  <g id="Layer_1-2" data-name="Layer 1">
    <g>
      <g>
        <path class="cls-2" d="M550.14,41.42c-82.5,52.5-156.69,130-258.71,193.7-58.81,36.72-151.29,122.59-271.29,126.95l141.67,348.52c183.33-45.83,355.83-141.67,475.83-239.17s180-187.5,167.5-327.5S632.64-11.08,550.14,41.42Z"/>
        <g class="cls-4">
          <path class="cls-1" d="M410.25,153.21s-10.64,53.79-19.62,76.44c25.11-25.6,89.2-77.43,139.5-120.4,38.72-33.07,77.65-67.57,149-54.33,81.65,15.14,122.88,93.36,111.44,164.18,13.56-16.18,39.5-115.67-25.79-164.73-65.28-49.06-151.65-44.45-206.65-12.45s-147.89,111.29-147.89,111.29Z"/>
        </g>
        <path d="M736.87,18.42c-57.55-28.34-139.19-23.53-194.11,11.41-39.08,24.87-75.83,54.85-114.74,86.58-44.28,36.12-90.06,73.46-143.86,107.05-12.1,7.55-25.61,17.15-39.92,27.31-56,39.76-132.68,94.22-224.59,97.56l-19.64,.71,153.56,377.78,11.58-2.9c168.47-42.11,343.85-130.26,481.17-241.83,113.51-92.23,186.29-185.24,172.52-339.39-6.48-72.56-48.15-107.64-81.97-124.29Zm-107.9,442.33c-131.17,106.58-297.81,191.29-458.95,233.54L40,374.43c91.19-9.67,165.17-62.2,220.15-101.24,13.97-9.92,27.15-19.29,38.56-26.41,55.27-34.51,101.74-72.41,146.68-109.07,38.27-31.21,74.41-60.69,112.12-84.69,47.37-30.15,117.69-34.31,167.2-9.94,27.49,13.53,61.38,42.23,66.72,102.06,11,123.18-34.56,211.68-162.48,315.61Z"/>
      </g>
      <path class="cls-5" d="M652.65,64.35c-13.35-9.81-35-3.03-48.35,15.15-13.35,18.17-13.35,40.86,0,50.67,13.35,9.81,35,3.03,48.35-15.14,13.35-18.17,13.35-40.86,0-50.67Z"/>
      <path class="cls-5" d="M678.58,128.44c-15.95,15.95-19.38,38.37-7.66,50.09,11.72,11.72,34.14,8.29,50.09-7.66,15.95-15.95,19.38-38.37,7.66-50.09-11.72-11.72-34.14-8.29-50.09,7.66Z"/>
      <path class="cls-5" d="M718.7,202.31c-20.56,9.28-31.69,29.04-24.88,44.14,6.81,15.1,29,19.82,49.56,10.55,20.56-9.28,31.69-29.04,24.88-44.14-6.82-15.1-29-19.83-49.56-10.55Z"/>
      <g class="cls-3">
        <path d="M149.3,562.1c85.84-9,501.1-148.17,620.97-388.17,29.13,121.71-186.13,386-592.13,500l-28.84-111.83Z"/>
      </g>
      <path class="cls-5" d="M551.86,160.66c-29.54,18.52-33.27,65.77-8.33,105.55,24.94,39.77,69.1,57,98.63,38.49,29.54-18.52,33.27-65.77,8.33-105.55-24.94-39.77-69.1-57-98.63-38.49Z"/>
    </g>
  </g>
</svg>