<?xml version="1.0" encoding="UTF-8"?>
<svg id="Layer_2" data-name="Layer 2" xmlns="http://www.w3.org/2000/svg" viewBox="0 0 585.26 860.52">
  <defs>
    <style>
      .cls-1 {
        fill: #fff;
      }

      .cls-2 {
        fill: #c97043;
      }

      .cls-3 {
        opacity: .2;
      }

      .cls-4 {
        opacity: .3;
      }
    </style>
  </defs>
  <g id="Layer_1-2" data-name="Layer 1">
    <g>
      <g>
        <path class="cls-2" d="M233.93,106.26C158.84,138.76,6.53,216.26,14.03,368.76s145,267.5,195,304.17c13.33,206.67,148.33,196.67,195,135,34.16-45.15,78.33-200,25-333.33L577.05,50.89c-126.97-5.38-268.03,22.88-343.12,55.38Z"/>
        <g class="cls-4">
          <path class="cls-1" d="M532.73,178.64l-41.09-10.76c-32.31,70.55-58.01,176.3-76.16,268.44,8.88,16.18,19.02,31.36,28.21,46.83,21.61-153.63,89.04-304.51,89.04-304.51Z"/>
        </g>
        <g class="cls-4">
          <path class="cls-1" d="M295.4,322.65s-58.72-24.72-88.55-22.8c50.17,29.92,120.45,84.92,155.98,136.09,35.53,51.17,85.04,180.96,61.62,294.73,19.24-27.56,49.91-180.56,4.57-256.06-45.33-75.5-133.62-151.95-133.62-151.95Z"/>
        </g>
        <g class="cls-4">
          <path class="cls-1" d="M13.76,328.76l14,39.33c.22-23.74,13.26-78.33,61.26-123.66,48-45.33,119.61-99.63,273.81-142.48l-35.27-9.44s-92.7-2.97-186.29,62.77C47.68,221.02,13.76,328.76,13.76,328.76Z"/>
        </g>
        <g class="cls-3">
          <path d="M306.38,327.76l-65.15-30.39c46.42,8.57,164.29-3.18,213.78-65.61-9.98,52-41.98,194-41.98,194l-106.65-98Z"/>
        </g>
        <g class="cls-3">
          <path d="M47.69,335.1c-8,41.33,15.65,191.42,159.16,301.05,7.51-18.38,41.38-113.86,41.38-113.86,0,0-145.88-16.52-200.54-187.19Z"/>
        </g>
        <g class="cls-3">
          <path d="M295.4,736.27c30.37,28.5,85.34,56.14,123.12,25,3.14-9.15,10.69-27.67,11.5-37.5-39.76,60-175.94-15-188.8-87.62-10.2,58.62-2.59,171.62,62.66,193.74,29.74,10.08,63.49-2.7,88.65-27.64-45.02,.69-85.94-12.55-97.13-65.98Z"/>
        </g>
        <path d="M228.47,93.65C71.4,161.62-5.36,254.41,.29,369.44c7.65,155.53,145.31,273,195.47,310.76,10.1,129.83,66.9,166.03,100.21,176.03,9.66,2.91,19.65,4.3,29.64,4.3,34.04,0,68.12-16.21,89.38-44.3,38.86-51.35,81.04-211.13,26.8-346.73l-25.54,10.22c53.18,132.95,4.95,282.73-23.2,319.93-17.47,23.1-53.72,40.91-89.17,30.25-27.02-8.11-73.5-39.4-81.14-157.84l-.41-6.41-5.18-3.8c-42.58-31.22-182.07-144.68-189.39-293.75-5.04-102.4,66.17-186.25,211.64-249.21,71.67-31.02,210.45-59.62,337.08-54.26l1.16-27.47c-130.75-5.57-274.61,24.23-349.17,56.49Z"/>
      </g>
      <path d="M396.46,430.33l26.92,5.61c38.92-186.89,109.35-345.65,161.88-420.07l-22.47-15.86c-50.2,71.13-123.89,226.5-166.33,430.33Z"/>
      <path d="M336.26,331.24c-64.73-47.47-129.41-31.39-129.41-31.39,38.1,6.09,158.35,52.22,209.4,179.86l25.54-10.22c-25.16-62.89-65.08-107.52-105.53-138.25Z"/>
      <path d="M224.25,555.06c-19,39.86-28.27,83.53-26.45,119.03l24.97-1.28c-3.08-60.01,28.94-145.87,87.85-185.67,0,0-56.52,10.48-86.36,67.92Z"/>
      <path d="M397.49,678.57c-37.63-12.3-56.72-42.43-56.72-42.43,0,0,5.34,52.62,51.68,66.91,4.45,.91,8.86,1.37,13.22,1.37,20.82,0,40.19-10.3,54.55-29.41l-19.99-15.01c-11.64,15.49-26.4,21.94-42.74,18.56Z"/>
      <path d="M360.56,788.39c-40.91-15.87-65.16-52.12-65.16-52.12,0,0,8,58.75,58.21,76.14,7.99,2.31,15.9,3.45,23.55,3.45,17.95,0,34.47-6.27,47.29-18.31l-17.12-18.21c-11.68,10.98-28.72,14.28-46.77,9.06Z"/>
    </g>
  </g>
</svg>